# Blender v2.79 (sub 6) OBJ File: 'gravestones.blend'
# www.blender.org
o 3_Cube.003
v -0.375000 -0.500000 0.374528
v -0.375000 -0.125000 0.374528
v -0.375000 -0.500000 -0.062972
v -0.375000 -0.250000 -0.062972
v 0.375000 -0.500000 0.374528
v 0.375000 -0.125000 0.374528
v 0.375000 -0.500000 -0.062972
v 0.375000 -0.250000 -0.062972
vt 0.125000 0.000000
vt 0.125000 0.375000
vt 0.562500 0.250000
vt 0.562500 0.000000
vt 0.125000 0.000000
vt 0.125000 0.250000
vt 0.875000 0.250000
vt 0.875000 0.000000
vt 0.562500 0.000000
vt 0.562500 0.250000
vt 0.125000 0.375000
vt 0.125000 0.000000
vt 0.875000 0.000000
vt 0.875000 0.375000
vt 0.125000 0.562500
vt 0.875000 0.562500
vt 0.875000 0.125000
vt 0.125000 0.125000
vt 0.875000 0.562500
vt 0.125000 0.562500
vt 0.125000 0.125000
vt 0.875000 0.125000
vn -1.0000 0.0000 0.0000
vn 0.0000 0.0000 -1.0000
vn 1.0000 0.0000 0.0000
vn 0.0000 0.0000 1.0000
vn 0.0000 -1.0000 0.0000
vn 0.0000 0.9615 -0.2747
s off
f 1/1/1 2/2/1 4/3/1 3/4/1
f 3/5/2 4/6/2 8/7/2 7/8/2
f 7/9/3 8/10/3 6/11/3 5/12/3
f 5/13/4 6/14/4 2/2/4 1/1/4
f 3/15/5 7/16/5 5/17/5 1/18/5
f 8/19/6 4/20/6 2/21/6 6/22/6
