# Blender v2.79 (sub 6) OBJ File: 'gravestones.blend'
# www.blender.org
o 12_Cube.012
v -0.375000 -0.500000 0.375000
v -0.375000 -0.375000 0.375000
v -0.375000 -0.500000 0.000000
v -0.375000 -0.375000 0.000000
v 0.375000 -0.500000 0.375000
v 0.375000 -0.375000 0.375000
v 0.375000 -0.500000 0.000000
v 0.375000 -0.375000 0.000000
v -0.000000 0.371385 0.062500
v -0.108620 0.086160 0.062500
v -0.392731 0.086049 0.062500
v -0.175751 -0.120448 0.062500
v -0.242721 -0.375633 0.062500
v -0.000000 -0.248138 0.062500
v 0.242721 -0.375633 0.062500
v 0.175751 -0.120448 0.062500
v 0.392731 0.086049 0.062500
v 0.108620 0.086160 0.062500
v 0.000000 0.371385 0.312500
v -0.108620 0.086160 0.312500
v -0.392731 0.086049 0.312500
v -0.175751 -0.120448 0.312500
v -0.242721 -0.375633 0.312500
v 0.000000 -0.248138 0.312500
v 0.242721 -0.375633 0.312500
v 0.175751 -0.120448 0.312500
v 0.392731 0.086049 0.312500
v 0.108620 0.086160 0.312500
vt 0.125000 0.000000
vt 0.125000 0.125000
vt 0.562500 0.125000
vt 0.562500 0.000000
vt 0.119550 0.000000
vt 0.119550 0.126077
vt 0.876010 0.126077
vt 0.876010 0.000000
vt 0.562500 0.000000
vt 0.562500 0.125000
vt 0.125000 0.125000
vt 0.125000 0.000000
vt 0.876010 0.000000
vt 0.876010 0.126077
vt 0.119550 0.126077
vt 0.119550 0.000000
vt 0.125000 0.562500
vt 0.875000 0.562500
vt 0.875000 0.125000
vt 0.125000 0.125000
vt 0.875000 0.562500
vt 0.125000 0.562500
vt 0.875000 0.125000
vt 0.497780 0.878890
vt 0.607335 0.591209
vt 0.388224 0.591208
vt 0.101667 0.591097
vt 0.320515 0.382821
vt 0.893893 0.591097
vt 0.675045 0.382821
vt 0.742591 0.125438
vt 0.497780 0.254031
vt 0.252969 0.125438
vt 0.497780 0.878890
vt 0.388224 0.591209
vt 0.607335 0.591209
vt 0.101667 0.591097
vt 0.320515 0.382821
vt 0.893893 0.591097
vt 0.675045 0.382821
vt 0.742591 0.125438
vt 0.497780 0.254031
vt 0.252969 0.125438
vt 0.625000 0.562500
vt 0.375000 0.562500
vt 0.375000 0.437500
vt 0.625000 0.437500
vt 0.312500 0.625000
vt 0.500000 0.625000
vt 0.500000 0.375000
vt 0.312500 0.375000
vt 0.187500 0.625000
vt 0.187500 0.375000
vt 0.437500 0.375000
vt 0.437500 0.625000
vt 0.562500 0.625000
vt 0.562500 0.375000
vt 0.812500 0.375000
vt 0.812500 0.625000
vt 0.687500 0.625000
vt 0.687500 0.375000
vt 0.625000 0.437500
vt 0.375000 0.437500
vt 0.375000 0.562500
vt 0.625000 0.562500
vt 0.625000 0.562500
vt 0.625000 0.812500
vt 0.375000 0.812500
vt 0.375000 0.562500
vt 0.375000 0.187500
vt 0.625000 0.187500
vt 0.625000 0.187500
vt 0.375000 0.187500
vt 0.625000 0.562500
vt 0.375000 0.562500
vn -1.0000 0.0000 0.0000
vn 0.0000 0.0000 -1.0000
vn 1.0000 0.0000 0.0000
vn 0.0000 0.0000 1.0000
vn 0.0000 -1.0000 0.0000
vn 0.0000 1.0000 0.0000
vn 0.6894 -0.7244 0.0000
vn 0.4650 -0.8853 0.0000
vn -0.0004 1.0000 -0.0000
vn 0.0004 1.0000 -0.0000
vn -0.4650 -0.8853 0.0000
vn -0.6894 -0.7244 0.0000
vn 0.9345 0.3559 -0.0000
vn 0.9672 0.2538 -0.0000
vn -0.9672 0.2538 -0.0000
vn -0.9345 0.3559 0.0000
s off
f 1/1/1 2/2/1 4/3/1 3/4/1
f 3/5/2 4/6/2 8/7/2 7/8/2
f 7/9/3 8/10/3 6/11/3 5/12/3
f 5/13/4 6/14/4 2/15/4 1/16/4
f 3/17/5 7/18/5 5/19/5 1/20/5
f 8/21/6 4/22/6 2/2/6 6/23/6
f 9/24/2 18/25/2 10/26/2
f 11/27/2 10/26/2 12/28/2
f 17/29/2 16/30/2 18/25/2
f 15/31/2 14/32/2 16/30/2
f 13/33/2 12/28/2 14/32/2
f 14/32/2 12/28/2 16/30/2
f 10/26/2 18/25/2 16/30/2 12/28/2
f 19/34/4 20/35/4 28/36/4
f 21/37/4 22/38/4 20/35/4
f 27/39/4 28/36/4 26/40/4
f 25/41/4 26/40/4 24/42/4
f 23/43/4 24/42/4 22/38/4
f 24/42/4 26/40/4 22/38/4
f 20/35/4 22/38/4 26/40/4 28/36/4
f 17/44/7 27/45/7 26/46/7 16/47/7
f 13/48/8 14/49/8 24/50/8 23/51/8
f 11/52/9 21/53/9 20/54/9 10/55/9
f 18/56/10 28/57/10 27/58/10 17/59/10
f 15/60/11 25/61/11 24/50/11 14/49/11
f 12/62/12 22/63/12 21/64/12 11/65/12
f 18/66/13 9/67/13 19/68/13 28/69/13
f 16/47/14 26/46/14 25/70/14 15/71/14
f 12/62/15 13/72/15 23/73/15 22/63/15
f 9/67/16 10/74/16 20/75/16 19/68/16
