# Blender v2.79 (sub 6) OBJ File: 'gravestones.blend'
# www.blender.org
o 5_Cube.005
v -0.312500 -0.500000 0.093750
v -0.312500 -0.500000 -0.093750
v 0.312500 -0.500000 0.093750
v 0.312500 -0.500000 -0.093750
v -0.062500 -0.500000 -0.093750
v -0.062500 0.437500 -0.093750
v -0.062500 -0.500000 0.093750
v -0.062500 0.437500 0.093750
v 0.062500 0.437500 -0.093750
v 0.062500 -0.500000 0.093750
v 0.062500 -0.500000 -0.093750
v 0.062500 0.437500 0.093750
v -0.250000 0.250000 0.093750
v -0.250000 0.250000 -0.093750
v 0.250000 0.250000 -0.093750
v 0.250000 0.250000 0.093750
v -0.062500 0.250000 0.093750
v -0.062500 0.250000 -0.093750
v 0.062500 0.250000 0.093750
v 0.062500 0.250000 -0.093750
v -0.250000 0.125000 -0.093750
v 0.250000 0.125000 -0.093750
v 0.250000 0.125000 0.093750
v -0.062500 0.125000 0.093750
v -0.062500 0.125000 -0.093750
v 0.062500 0.125000 0.093750
v 0.062500 0.125000 -0.093750
v -0.250000 0.125000 0.093750
v -0.312500 -0.375000 -0.093750
v 0.312500 -0.375000 -0.093750
v 0.312500 -0.375000 0.093750
v -0.062500 -0.125000 0.093750
v -0.062500 -0.125000 -0.093750
v 0.062500 -0.125000 0.093750
v 0.062500 -0.125000 -0.093750
v -0.312500 -0.375000 0.093750
vt 0.562500 0.625000
vt 0.812500 0.625000
vt 0.812500 0.437500
vt 0.562500 0.437500
vt 0.562500 0.625000
vt 0.437500 0.625000
vt 0.437500 0.437500
vt 0.562500 0.437500
vt 0.187500 0.625000
vt 0.437500 0.625000
vt 0.437500 0.437500
vt 0.187500 0.437500
vt 0.562500 0.750000
vt 0.562500 0.937500
vt 0.437500 0.937500
vt 0.437500 0.750000
vt 0.437500 0.750000
vt 0.437500 0.937500
vt 0.562500 0.937500
vt 0.562500 0.750000
vt 0.437500 0.625000
vt 0.562500 0.625000
vt 0.750000 0.625000
vt 0.750000 0.750000
vt 0.562500 0.625000
vt 0.250000 0.625000
vt 0.250000 0.750000
vt 0.437500 0.625000
vt 0.250000 0.750000
vt 0.250000 0.625000
vt 0.625000 0.625000
vt 0.625000 0.750000
vt 0.437500 0.750000
vt 0.437500 0.625000
vt 0.750000 0.750000
vt 0.750000 0.625000
vt 0.437500 0.625000
vt 0.437500 0.750000
vt 0.625000 0.750000
vt 0.625000 0.625000
vt 0.562500 0.375000
vt 0.437500 0.375000
vt 0.437500 0.375000
vt 0.562500 0.375000
vt 0.437500 0.000000
vt 0.562500 0.000000
vt 0.812500 0.000000
vt 0.812500 0.125000
vt 0.562500 0.000000
vt 0.187500 0.000000
vt 0.187500 0.125000
vt 0.437500 0.000000
vt 0.187500 0.125000
vt 0.187500 0.000000
vt 0.625000 0.000000
vt 0.625000 0.125000
vt 0.437500 0.125000
vt 0.437500 0.000000
vt 0.812500 0.125000
vt 0.812500 0.000000
vt 0.437500 0.000000
vt 0.437500 0.125000
vt 0.625000 0.125000
vt 0.625000 0.000000
vt 0.625000 0.375000
vt 0.437500 0.375000
vt 0.625000 0.375000
vt 0.625000 0.625000
vt 0.437500 0.625000
vt 0.625000 0.625000
vt 0.750000 0.437500
vt 0.562500 0.437500
vt 0.437500 0.437500
vt 0.250000 0.437500
vt 0.250000 0.625000
vt 0.250000 0.437500
vt 0.437500 0.437500
vt 0.437500 0.625000
vt 0.750000 0.437500
vt 0.750000 0.625000
vt 0.562500 0.625000
vt 0.562500 0.437500
vt 0.625000 0.937500
vt 0.437500 0.937500
vt 0.437500 0.750000
vt 0.625000 0.750000
vt 0.625000 0.937500
vt 0.625000 0.750000
vn 0.0000 -1.0000 0.0000
vn 0.0000 1.0000 0.0000
vn 0.0000 0.0000 1.0000
vn 0.0000 0.0000 -1.0000
vn 1.0000 0.0000 0.0000
vn -1.0000 0.0000 0.0000
vn 0.7071 0.7071 0.0000
vn -0.7071 0.7071 0.0000
s off
f 11/1/1 4/2/1 3/3/1 10/4/1
f 9/5/2 6/6/2 8/7/2 12/8/2
f 2/9/1 5/10/1 7/11/1 1/12/1
f 19/13/3 12/14/3 8/15/3 17/16/3
f 5/10/1 11/1/1 10/4/1 7/11/1
f 18/17/4 6/18/4 9/19/4 20/20/4
f 25/21/4 18/17/4 20/20/4 27/22/4
f 23/23/3 16/24/3 19/13/3 26/25/3
f 21/26/4 14/27/4 18/17/4 25/21/4
f 26/25/3 19/13/3 17/16/3 24/28/3
f 24/28/3 17/16/3 13/29/3 28/30/3
f 22/31/5 15/32/5 16/33/5 23/34/5
f 27/22/4 20/20/4 15/35/4 22/36/4
f 28/37/6 13/38/6 14/39/6 21/40/6
f 34/41/3 26/25/3 24/28/3 32/42/3
f 33/43/4 25/21/4 27/22/4 35/44/4
f 5/45/4 33/43/4 35/44/4 11/46/4
f 3/47/3 31/48/3 34/41/3 10/49/3
f 2/50/4 29/51/4 33/43/4 5/45/4
f 10/49/3 34/41/3 32/42/3 7/52/3
f 7/52/3 32/42/3 36/53/3 1/54/3
f 4/55/5 30/56/5 31/57/5 3/58/5
f 11/46/4 35/44/4 30/59/4 4/60/4
f 1/61/6 36/62/6 29/63/6 2/64/6
f 31/57/7 30/56/7 35/65/7 34/66/7
f 29/63/8 36/62/8 32/42/8 33/67/8
f 34/66/5 35/65/5 27/68/5 26/69/5
f 32/42/6 24/28/6 25/70/6 33/67/6
f 27/22/1 22/36/1 23/71/1 26/72/1
f 21/26/1 25/21/1 24/73/1 28/74/1
f 14/75/2 13/76/2 17/77/2 18/78/2
f 16/79/2 15/80/2 20/81/2 19/82/2
f 9/83/5 12/84/5 19/85/5 20/86/5
f 8/15/6 6/87/6 18/88/6 17/16/6
