# Blender v2.79 (sub 6) OBJ File: 'gravestones.blend'
# www.blender.org
o 7_Cube.008
v -0.062500 -0.437500 0.062500
v -0.062500 0.062500 0.062500
v -0.062500 -0.437500 -0.062500
v -0.062500 0.062500 -0.062500
v 0.062500 -0.437500 0.062500
v 0.062500 0.062500 0.062500
v 0.062500 -0.437500 -0.062500
v 0.062500 0.062500 -0.062500
v -0.062500 0.187500 0.062500
v -0.062500 0.187500 -0.062500
v 0.062500 0.187500 -0.062500
v 0.062500 0.187500 0.062500
v -0.062500 0.437500 0.062500
v -0.062500 0.437500 -0.062500
v 0.062500 0.437500 -0.062500
v 0.062500 0.437500 0.062500
v 0.312500 0.062500 -0.062500
v 0.312500 0.062500 0.062500
v 0.312500 0.187500 -0.062500
v 0.312500 0.187500 0.062500
v -0.312500 0.062500 0.062500
v -0.312500 0.062500 -0.062500
v -0.312500 0.187500 0.062500
v -0.312500 0.187500 -0.062500
v 0.000000 0.383535 0.031250
v -0.182812 0.307812 0.031250
v -0.258535 0.125000 0.031250
v -0.182812 -0.057812 0.031250
v 0.000000 -0.133535 0.031250
v 0.182812 -0.057812 0.031250
v 0.258535 0.125000 0.031250
v 0.182812 0.307812 0.031250
v 0.000000 0.305975 0.031250
v -0.127968 0.252968 0.031250
v -0.180975 0.125000 0.031250
v -0.127968 -0.002968 0.031250
v 0.000000 -0.055975 0.031250
v 0.127968 -0.002968 0.031250
v 0.180975 0.125000 0.031250
v 0.127968 0.252968 0.031250
v 0.000000 0.383535 -0.031250
v -0.182812 0.307812 -0.031250
v -0.258535 0.125000 -0.031250
v -0.182812 -0.057812 -0.031250
v 0.000000 -0.133535 -0.031250
v 0.182812 -0.057812 -0.031250
v 0.258535 0.125000 -0.031250
v 0.182812 0.307812 -0.031250
v 0.000000 0.305975 -0.031250
v -0.127968 0.252968 -0.031250
v -0.180975 0.125000 -0.031250
v -0.127968 -0.002968 -0.031250
v 0.000000 -0.055975 -0.031250
v 0.127968 -0.002968 -0.031250
v 0.180975 0.125000 -0.031250
v 0.127968 0.252968 -0.031250
v -0.062500 -0.500000 0.062500
v -0.062500 -0.500000 -0.062500
v 0.062500 -0.500000 0.062500
v 0.062500 -0.500000 -0.062500
v 0.125000 -0.437500 0.062500
v 0.125000 -0.437500 -0.062500
v 0.125000 -0.500000 0.062500
v 0.125000 -0.500000 -0.062500
v -0.125000 -0.437500 -0.062500
v -0.125000 -0.437500 0.062500
v -0.125000 -0.500000 -0.062500
v -0.125000 -0.500000 0.062500
v 0.062500 -0.437500 -0.062500
v -0.062500 -0.437500 -0.062500
v 0.062500 -0.500000 -0.062500
v -0.062500 -0.500000 -0.062500
v 0.125000 -0.437500 -0.062500
v 0.125000 -0.500000 -0.062500
v -0.125000 -0.500000 -0.062500
v -0.125000 -0.437500 -0.062500
v 0.062500 -0.437500 -0.125000
v -0.062500 -0.437500 -0.125000
v 0.062500 -0.500000 -0.125000
v -0.062500 -0.500000 -0.125000
v 0.125000 -0.437500 -0.125000
v 0.125000 -0.500000 -0.125000
v -0.125000 -0.500000 -0.125000
v -0.125000 -0.437500 -0.125000
v -0.062500 -0.437500 0.125000
v 0.062500 -0.437500 0.125000
v -0.062500 -0.500000 0.125000
v 0.062500 -0.500000 0.125000
v 0.125000 -0.500000 0.125000
v 0.125000 -0.437500 0.125000
v -0.125000 -0.437500 0.125000
v -0.125000 -0.500000 0.125000
vt 0.437500 0.062500
vt 0.437500 0.625000
vt 0.562500 0.625000
vt 0.562500 0.062500
vt 0.437500 0.062500
vt 0.437500 0.625000
vt 0.562500 0.625000
vt 0.562500 0.062500
vt 0.437500 0.625000
vt 0.437500 0.062500
vt 0.562500 0.062500
vt 0.562500 0.625000
vt 0.562500 0.437500
vt 0.437500 0.437500
vt 0.437500 0.375000
vt 0.562500 0.375000
vt 0.437500 0.750000
vt 0.562500 0.750000
vt 0.437500 0.750000
vt 0.562500 0.937500
vt 0.437500 0.937500
vt 0.562500 0.750000
vt 0.812500 0.625000
vt 0.812500 0.750000
vt 0.187500 0.625000
vt 0.187500 0.750000
vt 0.437500 0.750000
vt 0.562500 0.562500
vt 0.437500 0.562500
vt 0.437500 0.437500
vt 0.562500 0.437500
vt 0.562500 0.750000
vt 0.437500 0.937500
vt 0.562500 0.937500
vt 0.562500 0.937500
vt 0.437500 0.937500
vt 0.437500 0.625000
vt 0.562500 0.625000
vt 0.562500 0.750000
vt 0.437500 0.750000
vt 0.562500 0.562500
vt 0.562500 0.437500
vt 0.812500 0.437500
vt 0.812500 0.562500
vt 0.562500 0.437500
vt 0.562500 0.562500
vt 0.812500 0.562500
vt 0.812500 0.437500
vt 0.812500 0.750000
vt 0.812500 0.625000
vt 0.562500 0.625000
vt 0.437500 0.625000
vt 0.437500 0.750000
vt 0.562500 0.750000
vt 0.437500 0.437500
vt 0.437500 0.562500
vt 0.187500 0.562500
vt 0.187500 0.437500
vt 0.187500 0.750000
vt 0.187500 0.625000
vt 0.437500 0.562500
vt 0.437500 0.437500
vt 0.187500 0.437500
vt 0.187500 0.562500
vt 0.639185 0.795558
vt 0.494940 0.855306
vt 0.494940 0.794108
vt 0.595911 0.752284
vt 0.698933 0.651313
vt 0.637735 0.651313
vt 0.639185 0.507068
vt 0.595911 0.550342
vt 0.494940 0.447320
vt 0.494940 0.508518
vt 0.350695 0.507068
vt 0.393968 0.550342
vt 0.290947 0.651313
vt 0.352145 0.651313
vt 0.350695 0.795558
vt 0.393968 0.752284
vt 0.639185 0.795558
vt 0.595911 0.752284
vt 0.494940 0.794108
vt 0.494940 0.855306
vt 0.698933 0.651313
vt 0.637735 0.651313
vt 0.639185 0.507068
vt 0.595911 0.550342
vt 0.494940 0.447320
vt 0.494940 0.508518
vt 0.350695 0.507068
vt 0.393968 0.550341
vt 0.290947 0.651313
vt 0.352145 0.651313
vt 0.350695 0.795558
vt 0.393968 0.752284
vt 0.456332 0.553507
vt 0.456332 0.408108
vt 0.527345 0.408108
vt 0.527345 0.553507
vt 0.521553 0.456332
vt 0.313840 0.456332
vt 0.313840 0.527345
vt 0.521553 0.527345
vt 0.456332 0.347882
vt 0.527345 0.347882
vt 0.729265 0.456332
vt 0.729265 0.527345
vt 0.456332 0.408108
vt 0.527345 0.408108
vt 0.815303 0.456332
vt 0.815303 0.527345
vt 0.456332 0.553507
vt 0.527345 0.553507
vt 0.729265 0.456332
vt 0.729265 0.527345
vt 0.456332 0.698906
vt 0.527345 0.698906
vt 0.521553 0.456332
vt 0.521553 0.527345
vt 0.313840 0.456332
vt 0.313840 0.527345
vt 0.456332 0.759132
vt 0.527345 0.759132
vt 0.456332 0.698906
vt 0.527345 0.698906
vt 0.227802 0.456332
vt 0.227802 0.527345
vt 0.437500 0.562500
vt 0.562500 0.562500
vt 0.562500 0.437500
vt 0.437500 0.437500
vt 0.625000 0.625000
vt 0.375000 0.625000
vt 0.375000 0.625000
vt 0.625000 0.625000
vt 0.562500 0.375000
vt 0.437500 0.375000
vt 0.437500 0.062500
vt 0.437500 0.000000
vt 0.375000 0.000000
vt 0.375000 0.062500
vt 0.562500 0.062500
vt 0.437500 0.062500
vt 0.437500 0.000000
vt 0.562500 0.000000
vt 0.375000 0.625000
vt 0.375000 0.625000
vt 0.625000 0.562500
vt 0.625000 0.437500
vt 0.562500 0.562500
vt 0.625000 0.437500
vt 0.625000 0.562500
vt 0.562500 0.062500
vt 0.562500 0.000000
vt 0.437500 0.562500
vt 0.375000 0.562500
vt 0.375000 0.437500
vt 0.375000 0.437500
vt 0.375000 0.562500
vt 0.625000 0.000000
vt 0.625000 0.000000
vt 0.625000 0.000000
vt 0.625000 0.000000
vt 0.375000 0.562500
vt 0.437500 0.562500
vt 0.437500 0.625000
vt 0.375000 0.625000
vt 0.562500 0.562500
vt 0.437500 0.562500
vt 0.437500 0.625000
vt 0.562500 0.625000
vt 0.562500 0.562500
vt 0.625000 0.562500
vt 0.625000 0.625000
vt 0.562500 0.625000
vt 0.625000 0.000000
vt 0.625000 0.000000
vt 0.625000 0.000000
vt 0.625000 0.000000
vt 0.375000 0.000000
vt 0.375000 0.000000
vt 0.625000 0.625000
vt 0.625000 0.625000
vt 0.625000 0.000000
vt 0.625000 0.000000
vt 0.625000 0.000000
vt 0.625000 0.000000
vt 0.437500 0.062500
vt 0.562500 0.062500
vt 0.562500 0.000000
vt 0.437500 0.000000
vt 0.625000 0.062500
vt 0.625000 0.000000
vt 0.375000 0.000000
vt 0.375000 0.062500
vt 0.625000 0.562500
vt 0.625000 0.625000
vt 0.562500 0.062500
vt 0.562500 0.000000
vt 0.375000 0.562500
vt 0.375000 0.625000
vt 0.562500 0.000000
vt 0.562500 0.062500
vt 0.625000 0.062500
vt 0.625000 0.000000
vt 0.562500 0.062500
vt 0.437500 0.062500
vt 0.437500 0.000000
vt 0.562500 0.000000
vt 0.625000 0.000000
vt 0.625000 0.062500
vt 0.625000 0.375000
vt 0.375000 0.375000
vt 0.375000 0.062500
vt 0.375000 0.000000
vt 0.625000 0.375000
vt 0.375000 0.375000
vn -1.0000 0.0000 0.0000
vn 0.0000 0.0000 -1.0000
vn 1.0000 0.0000 0.0000
vn 0.0000 0.0000 1.0000
vn 0.0000 1.0000 0.0000
vn 0.0000 -1.0000 0.0000
vn 0.9239 0.3827 -0.0000
vn -0.3827 -0.9239 0.0000
vn 0.3827 0.9239 -0.0000
vn 0.3827 -0.9239 0.0000
vn -0.3827 0.9239 -0.0000
vn 0.9239 -0.3827 0.0000
vn -0.9239 0.3827 -0.0000
vn -0.9239 -0.3827 0.0000
s off
f 1/1/1 2/2/1 4/3/1 3/4/1
f 3/5/2 4/6/2 8/7/2 7/8/2
f 7/8/3 8/7/3 6/9/3 5/10/3
f 5/11/4 6/12/4 2/2/4 1/1/4
f 5/13/5 1/14/5 85/15/5 86/16/5
f 8/7/2 4/6/2 10/17/2 11/18/2
f 12/19/3 11/18/3 15/20/3 16/21/3
f 12/22/4 6/12/4 18/23/4 20/24/4
f 10/17/2 4/6/2 22/25/2 24/26/2
f 2/2/4 6/12/4 12/22/4 9/27/4
f 15/28/5 14/29/5 13/30/5 16/31/5
f 10/32/1 9/27/1 13/33/1 14/34/1
f 9/27/4 12/22/4 16/35/4 13/33/4
f 11/18/2 10/17/2 14/36/2 15/20/2
f 18/37/3 17/38/3 19/39/3 20/40/3
f 11/41/5 12/42/5 20/43/5 19/44/5
f 6/45/6 8/46/6 17/47/6 18/48/6
f 8/7/2 11/18/2 19/49/2 17/50/2
f 22/51/1 21/52/1 23/53/1 24/54/1
f 9/55/5 10/56/5 24/57/5 23/58/5
f 2/2/4 9/27/4 23/59/4 21/60/4
f 4/61/6 2/62/6 21/63/6 22/64/6
f 32/65/4 25/66/4 33/67/4 40/68/4
f 31/69/4 32/65/4 40/68/4 39/70/4
f 30/71/4 31/69/4 39/70/4 38/72/4
f 29/73/4 30/71/4 38/72/4 37/74/4
f 28/75/4 29/73/4 37/74/4 36/76/4
f 27/77/4 28/75/4 36/76/4 35/78/4
f 26/79/4 27/77/4 35/78/4 34/80/4
f 25/66/4 26/79/4 34/80/4 33/67/4
f 48/81/2 56/82/2 49/83/2 41/84/2
f 47/85/2 55/86/2 56/82/2 48/81/2
f 46/87/2 54/88/2 55/86/2 47/85/2
f 45/89/2 53/90/2 54/88/2 46/87/2
f 44/91/2 52/92/2 53/90/2 45/89/2
f 43/93/2 51/94/2 52/92/2 44/91/2
f 42/95/2 50/96/2 51/94/2 43/93/2
f 41/84/2 49/83/2 50/96/2 42/95/2
f 35/97/7 36/98/7 52/99/7 51/100/7
f 29/101/8 28/102/8 44/103/8 45/104/8
f 36/98/9 37/105/9 53/106/9 52/99/9
f 30/107/10 29/101/10 45/104/10 46/108/10
f 37/105/11 38/109/11 54/110/11 53/106/11
f 31/111/12 30/107/12 46/108/12 47/112/12
f 38/109/13 39/113/13 55/114/13 54/110/13
f 32/115/7 31/111/7 47/112/7 48/116/7
f 39/113/14 40/117/14 56/118/14 55/114/14
f 25/119/9 32/115/9 48/116/9 41/120/9
f 26/121/11 25/119/11 41/120/11 42/122/11
f 40/117/8 33/123/8 49/124/8 56/118/8
f 33/123/10 34/125/10 50/126/10 49/124/10
f 27/127/13 26/121/13 42/122/13 43/128/13
f 34/125/12 35/97/12 51/100/12 50/126/12
f 28/102/14 27/127/14 43/128/14 44/103/14
f 58/129/6 60/130/6 59/131/6 57/132/6
f 60/133/4 58/134/4 72/135/4 71/136/4
f 57/132/6 59/131/6 88/137/6 87/138/6
f 66/139/1 68/140/1 92/141/1 91/142/1
f 62/143/3 61/144/3 63/145/3 64/146/3
f 58/134/4 67/147/4 75/148/4 72/135/4
f 59/131/6 60/130/6 64/149/6 63/150/6
f 7/151/5 5/13/5 61/152/5 62/153/5
f 66/139/1 65/154/1 67/155/1 68/140/1
f 1/14/5 3/156/5 65/157/5 66/158/5
f 58/129/6 57/132/6 68/159/6 67/160/6
f 7/161/4 62/162/4 73/163/4 69/164/4
f 76/165/5 70/166/5 78/167/5 84/168/5
f 71/169/6 72/170/6 80/171/6 79/172/6
f 69/173/5 73/174/5 81/175/5 77/176/5
f 67/177/4 65/178/4 76/179/4 75/180/4
f 3/181/4 7/161/4 69/164/4 70/182/4
f 64/183/4 60/133/4 71/136/4 74/184/4
f 65/178/4 3/185/4 70/186/4 76/179/4
f 62/162/4 64/187/4 74/188/4 73/163/4
f 78/189/2 77/190/2 79/191/2 80/192/2
f 79/191/2 77/190/2 81/193/2 82/194/2
f 78/189/2 80/192/2 83/195/2 84/196/2
f 74/197/6 71/169/6 79/172/6 82/198/6
f 73/199/3 74/200/3 82/194/3 81/193/3
f 70/166/5 69/173/5 77/176/5 78/167/5
f 72/170/6 75/201/6 83/202/6 80/171/6
f 75/203/1 76/204/1 84/205/1 83/206/1
f 86/207/4 85/208/4 87/209/4 88/210/4
f 87/209/4 85/208/4 91/142/4 92/141/4
f 86/207/4 88/210/4 89/211/4 90/212/4
f 59/131/6 63/150/6 89/213/6 88/137/6
f 68/159/6 57/132/6 87/138/6 92/214/6
f 63/145/3 61/144/3 90/215/3 89/216/3
f 61/152/5 5/13/5 86/16/5 90/217/5
f 1/14/5 66/158/5 91/218/5 85/15/5
