# Blender v2.79 (sub 6) OBJ File: 'gravestones.blend'
# www.blender.org
o 11_Cube.013
v -0.125000 -0.500000 0.062500
v -0.125000 -0.500000 -0.062500
v 0.125000 -0.500000 0.062500
v 0.125000 -0.500000 -0.062500
v -0.125000 0.187500 0.062500
v -0.125000 0.187500 -0.062500
v 0.125000 0.187500 -0.062500
v 0.125000 0.187500 0.062500
v -0.125000 0.437500 0.062500
v -0.125000 0.437500 -0.062500
v 0.125000 0.437500 -0.062500
v 0.125000 0.437500 0.062500
v 0.125000 0.187500 0.125000
v -0.125000 0.187500 0.125000
v 0.125000 0.437500 0.125000
v -0.125000 0.437500 0.125000
v -0.125000 0.187500 -0.125000
v 0.125000 0.187500 -0.125000
v -0.125000 0.437500 -0.125000
v 0.125000 0.437500 -0.125000
v -0.179190 -0.120216 0.062500
v -0.179190 -0.120216 -0.062500
v -0.124925 0.187537 0.062500
v -0.124925 0.187537 -0.062500
v -0.302291 -0.098510 0.062500
v -0.302291 -0.098510 -0.062500
v -0.248026 0.209243 0.062500
v -0.248026 0.209243 -0.062500
v 0.302505 -0.098427 0.062500
v 0.302505 -0.098427 -0.062500
v 0.248240 0.209326 0.062500
v 0.248240 0.209326 -0.062500
v 0.179404 -0.120133 0.062500
v 0.179404 -0.120133 -0.062500
v 0.125139 0.187620 0.062500
v 0.125139 0.187620 -0.062500
vt 0.375000 0.437500
vt 0.375000 0.562500
vt 0.625000 0.562500
vt 0.625000 0.437500
vt 0.562500 0.000000
vt 0.437500 0.000000
vt 0.437500 0.687500
vt 0.562500 0.687500
vt 0.312500 0.437500
vt 0.687500 0.437500
vt 0.687500 0.375000
vt 0.312500 0.375000
vt 0.375000 0.000000
vt 0.625000 0.000000
vt 0.625000 0.687500
vt 0.375000 0.687500
vt 0.625000 0.000000
vt 0.375000 0.000000
vt 0.375000 0.687500
vt 0.625000 0.687500
vt 0.437500 0.000000
vt 0.562500 0.000000
vt 0.562500 0.687500
vt 0.437500 0.687500
vt 0.687500 0.562500
vt 0.312500 0.562500
vt 0.312500 0.437500
vt 0.687500 0.437500
vt 0.562500 0.875000
vt 0.625000 0.875000
vt 0.625000 0.687500
vt 0.562500 0.875000
vt 0.437500 0.875000
vt 0.437500 0.875000
vt 0.375000 0.687500
vt 0.625000 0.687500
vt 0.625000 0.937500
vt 0.375000 0.937500
vt 0.375000 0.875000
vt 0.375000 0.687500
vt 0.375000 0.875000
vt 0.312500 0.375000
vt 0.687500 0.375000
vt 0.625000 0.687500
vt 0.375000 0.687500
vt 0.375000 0.937500
vt 0.625000 0.937500
vt 0.687500 0.562500
vt 0.312500 0.562500
vt 0.312500 0.625000
vt 0.687500 0.625000
vt 0.625000 0.875000
vt 0.687500 0.625000
vt 0.312500 0.625000
vt 0.562500 0.375000
vt 0.562500 0.687500
vt 0.437500 0.687500
vt 0.437500 0.375000
vt 0.562500 0.375000
vt 0.437500 0.375000
vt 0.437500 0.687500
vt 0.562500 0.687500
vt 0.375000 0.375000
vt 0.375000 0.687500
vt 0.250000 0.687500
vt 0.250000 0.375000
vt 0.312500 0.562500
vt 0.312500 0.437500
vt 0.187500 0.437500
vt 0.187500 0.562500
vt 0.375000 0.687500
vt 0.375000 0.375000
vt 0.250000 0.375000
vt 0.250000 0.687500
vt 0.312500 0.437500
vt 0.312500 0.562500
vt 0.187500 0.562500
vt 0.187500 0.437500
vt 0.562500 0.375000
vt 0.562500 0.687500
vt 0.437500 0.687500
vt 0.437500 0.375000
vt 0.562500 0.375000
vt 0.437500 0.375000
vt 0.437500 0.687500
vt 0.562500 0.687500
vt 0.750000 0.375000
vt 0.750000 0.687500
vt 0.625000 0.687500
vt 0.625000 0.375000
vt 0.812500 0.562500
vt 0.812500 0.437500
vt 0.687500 0.437500
vt 0.687500 0.562500
vt 0.750000 0.687500
vt 0.750000 0.375000
vt 0.625000 0.375000
vt 0.625000 0.687500
vt 0.812500 0.437500
vt 0.812500 0.562500
vt 0.687500 0.562500
vt 0.687500 0.437500
vn 0.0000 -1.0000 0.0000
vn -1.0000 0.0000 0.0000
vn 0.0000 0.0000 1.0000
vn 0.0000 0.0000 -1.0000
vn 1.0000 0.0000 0.0000
vn 0.0000 1.0000 0.0000
vn 0.9848 -0.1736 0.0000
vn -0.9848 0.1736 0.0000
vn -0.1736 -0.9848 0.0000
vn 0.1736 0.9848 0.0000
vn 0.9848 0.1736 0.0000
vn -0.9848 -0.1736 0.0000
vn 0.1736 -0.9848 0.0000
vn -0.1736 0.9848 0.0000
s off
f 1/1/1 2/2/1 4/3/1 3/4/1
f 2/5/2 1/6/2 5/7/2 6/8/2
f 5/9/1 8/10/1 13/11/1 14/12/1
f 1/13/3 3/14/3 8/15/3 5/16/3
f 4/17/4 2/18/4 6/19/4 7/20/4
f 3/21/5 4/22/5 7/23/5 8/24/5
f 11/25/6 10/26/6 9/27/6 12/28/6
f 6/8/2 10/29/2 19/30/2 17/31/2
f 8/24/5 7/23/5 11/32/5 12/33/5
f 6/8/2 5/7/2 9/34/2 10/29/2
f 14/35/3 13/36/3 15/37/3 16/38/3
f 8/24/5 12/33/5 15/39/5 13/40/5
f 9/34/2 5/7/2 14/35/2 16/41/2
f 12/28/6 9/27/6 16/42/6 15/43/6
f 18/44/4 17/45/4 19/46/4 20/47/4
f 7/48/1 6/49/1 17/50/1 18/51/1
f 11/32/5 7/23/5 18/44/5 20/52/5
f 10/26/6 11/25/6 20/53/6 19/54/6
f 22/55/7 24/56/7 23/57/7 21/58/7
f 26/59/8 25/60/8 27/61/8 28/62/8
f 21/63/3 23/64/3 27/65/3 25/66/3
f 22/67/9 21/68/9 25/69/9 26/70/9
f 24/71/4 22/72/4 26/73/4 28/74/4
f 23/75/10 24/76/10 28/77/10 27/78/10
f 30/79/11 32/80/11 31/81/11 29/82/11
f 34/83/12 33/84/12 35/85/12 36/86/12
f 29/87/3 31/88/3 35/89/3 33/90/3
f 30/91/13 29/92/13 33/93/13 34/94/13
f 32/95/4 30/96/4 34/97/4 36/98/4
f 31/99/14 32/100/14 36/101/14 35/102/14
