# Blender v2.79 (sub 6) OBJ File: 'gravestones.blend'
# www.blender.org
o 8_Cube.009
v -0.312500 -0.500000 0.312500
v -0.250000 0.437500 0.250000
v -0.312500 -0.500000 -0.312500
v -0.250000 0.437500 -0.250000
v 0.312500 -0.500000 0.312500
v 0.250000 0.437500 0.250000
v 0.312500 -0.500000 -0.312500
v 0.250000 0.437500 -0.250000
v 0.000000 0.500000 0.000000
vt 0.187500 0.000000
vt 0.250000 0.937500
vt 0.750000 0.937500
vt 0.812500 0.000000
vt 0.187500 0.000000
vt 0.250000 0.937500
vt 0.750000 0.937500
vt 0.812500 0.000000
vt 0.250000 0.937500
vt 0.187500 0.000000
vt 0.812500 0.000000
vt 0.750000 0.937500
vt 0.187500 0.812500
vt 0.812500 0.812500
vt 0.812500 0.187500
vt 0.187500 0.187500
vt 0.250000 0.750000
vt 0.250000 0.250000
vt 0.500000 0.500000
vt 0.750000 0.250000
vt 0.750000 0.750000
vn -0.9978 0.0665 0.0000
vn 0.0000 0.0665 -0.9978
vn 0.9978 0.0665 0.0000
vn 0.0000 0.0665 0.9978
vn 0.0000 -1.0000 0.0000
vn -0.2425 0.9701 0.0000
vn 0.0000 0.9701 0.2425
vn 0.0000 0.9701 -0.2425
vn 0.2425 0.9701 0.0000
s off
f 1/1/1 2/2/1 4/3/1 3/4/1
f 3/5/2 4/6/2 8/7/2 7/8/2
f 7/8/3 8/7/3 6/9/3 5/10/3
f 5/11/4 6/12/4 2/2/4 1/1/4
f 3/13/5 7/14/5 5/15/5 1/16/5
f 4/17/6 2/18/6 9/19/6
f 2/18/7 6/20/7 9/19/7
f 8/21/8 4/17/8 9/19/8
f 6/20/9 8/21/9 9/19/9
