# Blender v2.79 (sub 6) OBJ File: 'gravestones.blend'
# www.blender.org
o 13_Cube.014
v -0.375000 -0.500000 0.187500
v -0.375000 -0.375000 0.187500
v -0.375000 -0.500000 -0.187500
v -0.375000 -0.375000 -0.187500
v 0.375000 -0.500000 0.187500
v 0.375000 -0.375000 0.187500
v 0.375000 -0.500000 -0.187500
v 0.375000 -0.375000 -0.187500
v 0.000000 0.400000 -0.125000
v -0.115431 0.199933 -0.125000
v -0.346410 0.200000 -0.125000
v -0.230862 -0.000000 -0.125000
v -0.346410 -0.200000 -0.125000
v -0.115431 -0.199933 -0.125000
v 0.000000 -0.400000 -0.125000
v 0.115431 -0.199933 -0.125000
v 0.346410 -0.200000 -0.125000
v 0.230862 -0.000000 -0.125000
v 0.346410 0.200000 -0.125000
v 0.115431 0.199933 -0.125000
v 0.000000 0.400000 0.125000
v -0.115431 0.199933 0.125000
v -0.346410 0.200000 0.125000
v -0.230862 0.000000 0.125000
v -0.346410 -0.200000 0.125000
v -0.115431 -0.199933 0.125000
v 0.000000 -0.400000 0.125000
v 0.115431 -0.199933 0.125000
v 0.346410 -0.200000 0.125000
v 0.230862 -0.000000 0.125000
v 0.346410 0.200000 0.125000
v 0.115431 0.199933 0.125000
vt 0.312500 0.000000
vt 0.312500 0.125000
vt 0.687500 0.125000
vt 0.687500 0.000000
vt 0.119550 0.000000
vt 0.119550 0.126077
vt 0.876010 0.126077
vt 0.876010 0.000000
vt 0.687500 0.000000
vt 0.687500 0.125000
vt 0.312500 0.125000
vt 0.312500 0.000000
vt 0.876010 0.000000
vt 0.876010 0.126077
vt 0.119550 0.126077
vt 0.119550 0.000000
vt 0.125000 0.562500
vt 0.875000 0.562500
vt 0.875000 0.187500
vt 0.125000 0.187500
vt 0.875000 0.562500
vt 0.125000 0.562500
vt 0.125000 0.187500
vt 0.875000 0.187500
vt 0.842609 0.299626
vt 0.611327 0.299693
vt 0.726910 0.499888
vt 0.495744 0.099363
vt 0.380161 0.299693
vt 0.148878 0.299626
vt 0.264578 0.499889
vt 0.148878 0.700151
vt 0.380161 0.700084
vt 0.495744 0.900414
vt 0.611327 0.700084
vt 0.842609 0.700151
vt 0.842609 0.299626
vt 0.726910 0.499888
vt 0.611327 0.299693
vt 0.495744 0.099363
vt 0.380161 0.299693
vt 0.148878 0.299626
vt 0.264578 0.499889
vt 0.148878 0.700151
vt 0.380161 0.700084
vt 0.495744 0.900414
vt 0.611327 0.700084
vt 0.842609 0.700151
vt 0.404637 0.876156
vt 0.171312 0.876156
vt 0.171312 0.623616
vt 0.404637 0.623616
vt 0.626024 0.298236
vt 0.626024 0.499717
vt 0.374174 0.499717
vt 0.374174 0.298236
vt 0.626024 0.298304
vt 0.626024 0.096756
vt 0.374174 0.096756
vt 0.374174 0.298304
vt 0.626024 0.701197
vt 0.626024 0.499717
vt 0.374174 0.499717
vt 0.374174 0.701197
vt 0.626024 0.701197
vt 0.374174 0.701197
vt 0.626024 0.298304
vt 0.374174 0.298304
vt 0.626024 0.298236
vt 0.374174 0.298236
vt 0.871169 0.876156
vt 0.637844 0.876156
vt 0.637844 0.623616
vt 0.871169 0.623616
vt 0.626024 0.902678
vt 0.626024 0.701130
vt 0.374174 0.701130
vt 0.374174 0.902678
vt 0.637844 0.876156
vt 0.871169 0.876156
vt 0.871169 0.623616
vt 0.637844 0.623616
vt 0.171312 0.876156
vt 0.404637 0.876156
vt 0.404637 0.623616
vt 0.171312 0.623616
vt 0.626024 0.701129
vt 0.374174 0.701129
vn -1.0000 0.0000 0.0000
vn 0.0000 0.0000 -1.0000
vn 1.0000 0.0000 0.0000
vn 0.0000 0.0000 1.0000
vn 0.0000 -1.0000 0.0000
vn 0.0000 1.0000 0.0000
vn 0.0003 1.0000 0.0000
vn 0.8659 0.5003 -0.0000
vn -0.8662 -0.4997 0.0000
vn -0.8659 -0.5003 0.0000
vn 0.8659 -0.5003 0.0000
vn 0.8662 -0.4997 0.0000
vn -0.8659 0.5003 -0.0000
vn -0.0003 1.0000 0.0000
vn -0.8662 0.4997 0.0000
vn -0.0003 -1.0000 0.0000
vn 0.0003 -1.0000 0.0000
vn 0.8662 0.4997 0.0000
s off
f 1/1/1 2/2/1 4/3/1 3/4/1
f 3/5/2 4/6/2 8/7/2 7/8/2
f 7/9/3 8/10/3 6/11/3 5/12/3
f 5/13/4 6/14/4 2/15/4 1/16/4
f 3/17/5 7/18/5 5/19/5 1/20/5
f 8/21/6 4/22/6 2/23/6 6/24/6
f 17/25/2 16/26/2 18/27/2
f 15/28/2 14/29/2 16/26/2
f 13/30/2 12/31/2 14/29/2
f 11/32/2 10/33/2 12/31/2
f 9/34/2 20/35/2 10/33/2
f 19/36/2 18/27/2 20/35/2
f 10/33/2 20/35/2 18/27/2 12/31/2
f 16/26/2 14/29/2 12/31/2 18/27/2
f 29/37/4 30/38/4 28/39/4
f 27/40/4 28/39/4 26/41/4
f 25/42/4 26/41/4 24/43/4
f 23/44/4 24/43/4 22/45/4
f 21/46/4 22/45/4 32/47/4
f 31/48/4 32/47/4 30/38/4
f 22/45/4 24/43/4 30/38/4 32/47/4
f 28/39/4 30/38/4 24/43/4 26/41/4
f 10/49/7 11/50/7 23/51/7 22/52/7
f 17/53/8 18/54/8 30/55/8 29/56/8
f 14/57/9 15/58/9 27/59/9 26/60/9
f 11/61/10 12/62/10 24/63/10 23/64/10
f 18/54/11 19/65/11 31/66/11 30/55/11
f 15/58/12 16/67/12 28/68/12 27/59/12
f 12/62/13 13/69/13 25/70/13 24/63/13
f 19/71/14 20/72/14 32/73/14 31/74/14
f 9/75/15 10/76/15 22/77/15 21/78/15
f 16/79/16 17/80/16 29/81/16 28/82/16
f 13/83/17 14/84/17 26/85/17 25/86/17
f 20/87/18 9/75/18 21/78/18 32/88/18
