# Blender v2.79 (sub 6) OBJ File: 'gravestones.blend'
# www.blender.org
o 9_Cube.010
v -0.312500 -0.500000 0.375000
v -0.312500 -0.375000 0.375000
v -0.312500 -0.500000 -0.375000
v -0.312500 -0.375000 -0.375000
v 0.375000 -0.500000 0.375000
v 0.375000 -0.375000 0.375000
v 0.375000 -0.500000 -0.375000
v 0.375000 -0.375000 -0.375000
v -0.375000 -0.375000 0.312500
v -0.375000 -0.250000 0.312500
v -0.375000 -0.375000 -0.250000
v -0.375000 -0.250000 -0.250000
v 0.312500 -0.375000 0.312500
v 0.312500 -0.250000 0.312500
v 0.312500 -0.375000 -0.250000
v 0.312500 -0.250000 -0.250000
v -0.312500 -0.250000 0.250000
v -0.312500 -0.125000 0.250000
v -0.312500 -0.250000 -0.312500
v -0.312500 -0.125000 -0.312500
v 0.312500 -0.250000 0.250000
v 0.312500 -0.125000 0.250000
v 0.312500 -0.250000 -0.312500
v 0.312500 -0.125000 -0.312500
v -0.312500 -0.125000 0.312500
v -0.312500 0.000000 0.312500
v -0.312500 -0.125000 -0.375000
v -0.312500 0.000000 -0.375000
v 0.250000 -0.125000 0.312500
v 0.250000 0.000000 0.312500
v 0.250000 -0.125000 -0.375000
v 0.250000 0.000000 -0.375000
v -0.250000 0.000000 0.250000
v -0.250000 0.125000 0.250000
v -0.250000 0.000000 -0.312500
v -0.250000 0.125000 -0.312500
v 0.375000 0.000000 0.250000
v 0.375000 0.125000 0.250000
v 0.375000 0.000000 -0.312500
v 0.375000 0.125000 -0.312500
v -0.312500 0.125000 0.312500
v -0.312500 0.250000 0.312500
v -0.312500 0.125000 -0.187500
v -0.312500 0.250000 -0.187500
v 0.312500 0.125000 0.312500
v 0.312500 0.250000 0.312500
v 0.312500 0.125000 -0.187500
v 0.312500 0.250000 -0.187500
v -0.062500 0.250000 0.187500
v -0.062500 0.375000 0.187500
v -0.062500 0.250000 -0.125000
v -0.062500 0.375000 -0.125000
v 0.250000 0.250000 0.187500
v 0.250000 0.375000 0.187500
v 0.250000 0.250000 -0.125000
v 0.250000 0.375000 -0.125000
vt 0.125000 0.000000
vt 0.125000 0.125000
vt 0.875000 0.125000
vt 0.875000 0.000000
vt 0.187500 0.000000
vt 0.187500 0.125000
vt 0.875000 0.125000
vt 0.875000 0.000000
vt 0.125000 0.125000
vt 0.125000 0.000000
vt 0.875000 0.000000
vt 0.875000 0.125000
vt 0.187500 0.125000
vt 0.187500 0.000000
vt 0.187500 0.875000
vt 0.875000 0.875000
vt 0.875000 0.125000
vt 0.187500 0.125000
vt 0.875000 0.875000
vt 0.187500 0.875000
vt 0.187500 0.000000
vt 0.187500 0.125000
vt 0.750000 0.125000
vt 0.750000 0.000000
vt 0.125000 0.000000
vt 0.125000 0.125000
vt 0.812500 0.125000
vt 0.812500 0.000000
vt 0.750000 0.000000
vt 0.750000 0.125000
vt 0.187500 0.125000
vt 0.187500 0.000000
vt 0.812500 0.000000
vt 0.812500 0.125000
vt 0.125000 0.125000
vt 0.125000 0.000000
vt 0.125000 0.625000
vt 0.812500 0.625000
vt 0.812500 0.062500
vt 0.125000 0.062500
vt 0.812500 0.625000
vt 0.125000 0.625000
vt 0.125000 0.062500
vt 0.812500 0.062500
vt 0.750000 0.812500
vt 0.750000 0.687500
vt 0.187500 0.687500
vt 0.187500 0.812500
vt 0.812500 0.812500
vt 0.812500 0.687500
vt 0.187500 0.687500
vt 0.187500 0.812500
vt 0.750000 0.687500
vt 0.750000 0.812500
vt 0.187500 0.812500
vt 0.187500 0.687500
vt 0.812500 0.687500
vt 0.812500 0.812500
vt 0.812500 0.250000
vt 0.187500 0.250000
vt 0.187500 0.250000
vt 0.812500 0.250000
vt 0.812500 0.812500
vt 0.187500 0.812500
vt 0.062500 0.250000
vt 0.062500 0.375000
vt 0.750000 0.375000
vt 0.750000 0.250000
vt 0.062500 0.250000
vt 0.062500 0.375000
vt 0.625000 0.375000
vt 0.625000 0.250000
vt 0.750000 0.250000
vt 0.750000 0.375000
vt 0.062500 0.375000
vt 0.062500 0.250000
vt 0.625000 0.250000
vt 0.625000 0.375000
vt 0.062500 0.750000
vt 0.625000 0.750000
vt 0.625000 0.062500
vt 0.062500 0.062500
vt 0.625000 0.750000
vt 0.062500 0.750000
vt 0.062500 0.062500
vt 0.625000 0.062500
vt 0.437500 0.375000
vt 0.312500 0.375000
vt 0.312500 0.937500
vt 0.437500 0.937500
vt 0.437500 0.375000
vt 0.312500 0.375000
vt 0.312500 1.000000
vt 0.437500 1.000000
vt 0.437500 0.937500
vt 0.312500 0.937500
vt 0.312500 0.375000
vt 0.437500 0.375000
vt 0.437500 1.000000
vt 0.312500 1.000000
vt 0.125000 0.375000
vt 0.125000 1.000000
vt 0.687500 1.000000
vt 0.687500 0.375000
vt 0.125000 1.000000
vt 0.125000 0.375000
vt 0.687500 0.375000
vt 0.687500 1.000000
vt 0.312500 0.750000
vt 0.312500 0.875000
vt 0.812500 0.875000
vt 0.812500 0.750000
vt 0.312500 0.750000
vt 0.312500 0.875000
vt 0.937500 0.875000
vt 0.937500 0.750000
vt 0.812500 0.750000
vt 0.812500 0.875000
vt 0.312500 0.875000
vt 0.312500 0.750000
vt 0.937500 0.750000
vt 0.937500 0.875000
vt 0.312500 0.812500
vt 0.937500 0.812500
vt 0.937500 0.312500
vt 0.312500 0.312500
vt 0.937500 0.812500
vt 0.312500 0.812500
vt 0.312500 0.312500
vt 0.937500 0.312500
vt 0.687500 0.812500
vt 0.812500 0.812500
vt 0.812500 0.500000
vt 0.687500 0.500000
vt 0.687500 0.687500
vt 0.812500 0.687500
vt 0.812500 0.375000
vt 0.687500 0.375000
vt 0.687500 0.500000
vt 0.812500 0.500000
vt 0.812500 0.812500
vt 0.687500 0.812500
vt 0.687500 0.375000
vt 0.812500 0.375000
vt 0.812500 0.687500
vt 0.687500 0.687500
vt 0.562500 0.687500
vt 0.562500 0.375000
vt 0.250000 0.375000
vt 0.250000 0.687500
vt 0.562500 0.375000
vt 0.562500 0.687500
vt 0.250000 0.687500
vt 0.250000 0.375000
vn -1.0000 0.0000 0.0000
vn 0.0000 0.0000 -1.0000
vn 1.0000 0.0000 0.0000
vn 0.0000 0.0000 1.0000
vn 0.0000 -1.0000 0.0000
vn 0.0000 1.0000 0.0000
s off
f 1/1/1 2/2/1 4/3/1 3/4/1
f 3/5/2 4/6/2 8/7/2 7/8/2
f 7/8/3 8/7/3 6/9/3 5/10/3
f 5/11/4 6/12/4 2/13/4 1/14/4
f 3/15/5 7/16/5 5/17/5 1/18/5
f 8/19/6 4/20/6 2/13/6 6/12/6
f 9/21/1 10/22/1 12/23/1 11/24/1
f 11/25/2 12/26/2 16/27/2 15/28/2
f 15/29/3 16/30/3 14/31/3 13/32/3
f 13/33/4 14/34/4 10/35/4 9/36/4
f 11/37/5 15/38/5 13/39/5 9/40/5
f 16/41/6 12/42/6 10/43/6 14/44/6
f 17/45/1 18/46/1 20/47/1 19/48/1
f 19/49/2 20/50/2 24/51/2 23/52/2
f 23/52/3 24/51/3 22/53/3 21/54/3
f 21/55/4 22/56/4 18/57/4 17/58/4
f 19/59/5 23/60/5 21/55/5 17/58/5
f 24/61/6 20/62/6 18/63/6 22/64/6
f 25/65/1 26/66/1 28/67/1 27/68/1
f 27/69/2 28/70/2 32/71/2 31/72/2
f 31/73/3 32/74/3 30/75/3 29/76/3
f 29/77/4 30/78/4 26/66/4 25/65/4
f 27/79/5 31/80/5 29/81/5 25/82/5
f 32/83/6 28/84/6 26/85/6 30/86/6
f 33/87/1 34/88/1 36/89/1 35/90/1
f 35/91/2 36/92/2 40/93/2 39/94/2
f 39/95/3 40/96/3 38/97/3 37/98/3
f 37/99/4 38/100/4 34/88/4 33/87/4
f 35/101/5 39/102/5 37/103/5 33/104/5
f 40/105/6 36/106/6 34/107/6 38/108/6
f 41/109/1 42/110/1 44/111/1 43/112/1
f 43/113/2 44/114/2 48/115/2 47/116/2
f 47/117/3 48/118/3 46/119/3 45/120/3
f 45/121/4 46/122/4 42/110/4 41/109/4
f 43/123/5 47/124/5 45/125/5 41/126/5
f 48/127/6 44/128/6 42/129/6 46/130/6
f 49/131/1 50/132/1 52/133/1 51/134/1
f 51/135/2 52/136/2 56/137/2 55/138/2
f 55/139/3 56/140/3 54/141/3 53/142/3
f 53/143/4 54/144/4 50/145/4 49/146/4
f 51/147/5 55/148/5 53/149/5 49/150/5
f 56/151/6 52/152/6 50/153/6 54/154/6
